<svg width="210" height="43" viewBox="0 0 210 43" fill="none" xmlns="http://www.w3.org/2000/svg">
<g clip-path="url(#clip0_529_368)">
<path d="M65.0252 26.0448H50.6345V38.4064C50.6066 38.8156 50.6994 39.2241 50.9015 39.5811C51.1155 39.8928 51.432 40.1195 51.7959 40.2219V41.0228H44.0532V40.2219C44.4167 40.104 44.7342 39.8753 44.961 39.5678C45.153 39.2122 45.241 38.8096 45.2146 38.4064V9.34463C45.241 8.94135 45.153 8.53882 44.961 8.18323C44.7342 7.87571 44.4167 7.64696 44.0532 7.52911V6.67474H51.7959V7.47571C51.4266 7.57416 51.1046 7.80143 50.8881 8.11648C50.6976 8.47746 50.6099 8.88381 50.6345 9.29123V20.3446H65.0252V9.34463C65.0433 8.93773 64.9559 8.53306 64.7716 8.16988C64.5493 7.85475 64.2232 7.62791 63.8504 7.52911V6.67474H71.6465V7.47571C71.2793 7.59351 70.9576 7.82199 70.7254 8.12983C70.5333 8.48542 70.4454 8.88795 70.4718 9.29123V38.4064C70.4454 38.8096 70.5333 39.2122 70.7254 39.5678C70.9576 39.8756 71.2793 40.1041 71.6465 40.2219V41.0228H63.8504V40.2219C64.2183 40.1203 64.5393 39.8937 64.7582 39.5811C64.954 39.2217 65.0464 38.8151 65.0252 38.4064V26.0448Z" fill="#1A6AB3"/>
<path d="M75.3576 38.393V9.34463C75.3814 8.94592 75.3081 8.5474 75.1441 8.18323C74.975 7.88771 74.7118 7.65739 74.3965 7.52911V6.67474H80.7909V7.47571C80.4691 7.58624 80.2017 7.81544 80.0433 8.11648C79.879 8.50412 79.8059 8.9243 79.8297 9.34463V38.393C79.8135 38.8012 79.8911 39.2076 80.0566 39.5811C80.2169 39.8756 80.4774 40.103 80.7909 40.2219V41.0228H74.3965V40.2219C74.7118 40.0936 74.975 39.8633 75.1441 39.5678C75.3082 39.1989 75.3815 38.796 75.3576 38.393Z" fill="#1A6AB3"/>
<path d="M100.321 28.688H95.5687C95.4389 28.684 95.3104 28.714 95.1957 28.7748C95.081 28.8357 94.9841 28.9254 94.9146 29.035C94.7202 29.4283 94.5981 29.8534 94.5542 30.2899H94.1136V22.2802H94.5542C94.5944 22.7217 94.7166 23.1518 94.9146 23.5484C94.9837 23.6576 95.0809 23.7461 95.196 23.8048C95.311 23.8635 95.4398 23.8902 95.5687 23.8822H104.686V24.6965C104.382 24.8216 104.135 25.0545 103.992 25.3506C103.838 25.7221 103.769 26.1237 103.792 26.5254V33.5605C103.765 33.9612 103.829 34.3627 103.979 34.7353C104.131 35.0294 104.381 35.2608 104.686 35.3894V36.0435C101.038 39.7635 97.4777 41.6236 94.0068 41.6236C92.5123 41.6443 91.0358 41.2957 89.7084 40.6087C88.381 39.9217 87.2437 38.9176 86.3977 37.6855C83.977 34.357 82.7666 29.7515 82.7666 23.8688C82.7666 18.3688 83.8657 13.9947 86.0639 10.7463C86.9292 9.32006 88.1514 8.14397 89.6098 7.334C91.0682 6.52404 92.7125 6.10817 94.3806 6.12741C95.4285 6.12524 96.4684 6.31061 97.451 6.67474C98.6288 7.14774 99.745 7.76185 100.775 8.50361C101.16 8.83025 101.618 9.05922 102.11 9.17108C102.31 9.17108 102.537 8.98419 102.804 8.59705L103.205 8.97084L100.935 17.1941L100.535 16.8203C100.542 16.4201 100.497 16.0207 100.401 15.6322C100.282 15.3084 100.111 15.0063 99.8939 14.7378C99.2417 13.9008 98.4059 13.2249 97.451 12.7621C96.4664 12.277 95.3847 12.0214 94.2872 12.0145C93.264 12.0377 92.2647 12.3283 91.3888 12.8577C90.5128 13.387 89.7908 14.1364 89.2945 15.0315C87.6829 17.7467 86.9031 20.875 87.0518 24.029C86.906 27.098 87.6625 30.1424 89.2277 32.7862C89.7632 33.7276 90.5407 34.5086 91.4795 35.0485C92.4184 35.5883 93.4845 35.8674 94.5675 35.8566C96.7324 35.7956 98.7916 34.907 100.321 33.3736V28.688Z" fill="#1A6AB3"/>
<path d="M124.15 26.0448H112.282V38.4064C112.263 38.8104 112.341 39.2131 112.509 39.5811C112.669 39.8756 112.93 40.103 113.243 40.2219V41.0228H106.795V40.2219C107.111 40.0936 107.374 39.8633 107.543 39.5678C107.707 39.2036 107.78 38.8051 107.757 38.4064V9.34463C107.78 8.94592 107.707 8.5474 107.543 8.18323C107.374 7.88771 107.111 7.65739 106.795 7.52911V6.67474H113.19V7.47571C112.868 7.58624 112.601 7.81544 112.442 8.11648C112.286 8.4877 112.213 8.88873 112.229 9.29123V20.3446H124.15V9.34463C124.165 8.94213 124.092 8.5411 123.936 8.16988C123.778 7.86884 123.51 7.63964 123.189 7.52911V6.67474H129.489V7.47571C129.174 7.604 128.911 7.83431 128.742 8.12983C128.578 8.494 128.505 8.89252 128.528 9.29123V38.4064C128.505 38.8051 128.578 39.2036 128.742 39.5678C128.911 39.8633 129.174 40.0936 129.489 40.2219V41.0228H123.148V40.2219C123.465 40.1084 123.727 39.8796 123.883 39.5811C124.05 39.2131 124.128 38.8104 124.11 38.4064L124.15 26.0448Z" fill="#1A6AB3"/>
<path d="M140.009 26.018V38.393C139.988 38.8001 140.062 39.2065 140.222 39.5811C140.381 39.8821 140.648 40.1113 140.97 40.2218V41.0228H134.576V40.2218C134.888 40.0893 135.15 39.8601 135.323 39.5677C135.482 39.1973 135.555 38.7957 135.537 38.393V9.34459C135.555 8.94191 135.482 8.54028 135.323 8.16984C135.15 7.87749 134.888 7.64824 134.576 7.51572V6.6747H152.704C152.84 6.68042 152.975 6.65157 153.096 6.59086C153.218 6.53014 153.322 6.43956 153.398 6.32762C153.623 5.91616 153.755 5.46055 153.786 4.99268H154.266V13.8701H153.786C153.755 13.4022 153.623 12.9466 153.398 12.5351C153.322 12.4232 153.218 12.3326 153.096 12.2719C152.975 12.2112 152.84 12.1823 152.704 12.188H140.009V20.3846H148.312C148.451 20.3912 148.59 20.3614 148.714 20.2982C148.838 20.235 148.943 20.1405 149.02 20.0241C149.224 19.6376 149.355 19.2167 149.407 18.7826H149.887V27.6333H149.407C149.357 27.1947 149.225 26.7692 149.02 26.3785C148.943 26.2621 148.838 26.1676 148.714 26.1044C148.59 26.0412 148.451 26.0114 148.312 26.018H140.009Z" fill="#1A6AB3"/>
<path d="M156.575 38.393V9.34463C156.592 8.94641 156.519 8.54957 156.362 8.18323C156.189 7.89088 155.927 7.66163 155.614 7.52911V6.67474H162.009V7.47571C161.687 7.58624 161.42 7.81544 161.261 8.11648C161.098 8.48579 161.025 8.8883 161.047 9.29123V38.393C161.027 38.8002 161.1 39.2066 161.261 39.5811C161.427 39.8758 161.692 40.1026 162.009 40.2219V41.0228H155.614V40.2219C155.927 40.0894 156.189 39.8601 156.362 39.5678C156.521 39.1973 156.594 38.7957 156.575 38.393Z" fill="#1A6AB3"/>
<path d="M170.539 17.5278V38.393C170.517 38.7947 170.585 39.1963 170.739 39.5678C170.902 39.8588 171.155 40.0886 171.46 40.2219V41.0228H165.68V40.2219C165.985 40.0886 166.239 39.8588 166.401 39.5678C166.555 39.1963 166.624 38.7947 166.601 38.393V9.34463C166.622 8.94741 166.553 8.55062 166.401 8.18323C166.239 7.89215 165.985 7.66235 165.68 7.52911V6.67474H172.355V7.47571C172.143 7.58122 171.97 7.74937 171.857 7.95722C171.745 8.16506 171.7 8.40249 171.727 8.63711C171.744 9.109 171.882 9.5686 172.128 9.97205L182.967 29.6491V9.34463C182.988 8.94741 182.92 8.55062 182.767 8.18323C182.605 7.89215 182.352 7.66235 182.046 7.52911V6.67474H187.827V7.47571C187.521 7.60895 187.268 7.83875 187.106 8.12983C186.941 8.51254 186.868 8.92858 186.892 9.34463V38.393C186.87 38.7947 186.938 39.1963 187.092 39.5678C187.255 39.8588 187.508 40.0886 187.813 40.2219V41.0228H181.619V40.2219C181.824 40.1331 181.995 39.9789 182.103 39.7834C182.212 39.5878 182.253 39.3618 182.22 39.1406C182.127 38.512 181.899 37.911 181.552 37.3784L170.539 17.5278Z" fill="#1A6AB3"/>
<path d="M195.249 25.978V35.3226H208.438C208.575 35.3296 208.712 35.2998 208.834 35.2365C208.956 35.1732 209.059 35.0785 209.132 34.9622C209.346 34.575 209.478 34.1478 209.519 33.7073H210V42.5847H209.586C209.547 42.1438 209.415 41.7162 209.199 41.3299C209.126 41.2136 209.023 41.1189 208.901 41.0556C208.779 40.9922 208.642 40.9625 208.505 40.9694H189.816V40.1685C190.131 40.0402 190.394 39.8099 190.563 39.5143C190.727 39.1455 190.801 38.7426 190.777 38.3396V9.34462C190.801 8.94159 190.727 8.53872 190.563 8.16987C190.394 7.87435 190.131 7.64403 189.816 7.51574V6.67473H208.078C208.215 6.68168 208.352 6.65196 208.474 6.58861C208.596 6.52527 208.699 6.43059 208.772 6.3143C208.978 5.9236 209.109 5.4981 209.159 5.05945H209.586V13.9368H209.106C209.055 13.4982 208.924 13.0727 208.718 12.682C208.645 12.5657 208.542 12.471 208.42 12.4077C208.298 12.3443 208.162 12.3146 208.024 12.3215H195.195V20.4647H203.526C203.659 20.4694 203.792 20.44 203.911 20.3793C204.03 20.3185 204.132 20.2285 204.206 20.1176C204.418 19.7283 204.554 19.3026 204.607 18.8628H205.087V27.5266H204.607C204.552 27.0914 204.416 26.6704 204.206 26.2851C204.134 26.1708 204.033 26.0774 203.914 26.0142C203.795 25.9509 203.661 25.9201 203.526 25.9246L195.249 25.978Z" fill="#1A6AB3"/>
<path d="M32.5993 0C32.5993 0 32.5993 8.00966 28.1406 8.00966H18.1953C15.9659 8.00966 11.5206 9.15771 10.2924 13.3494C9.29517 17.1874 8.56806 21.0906 8.11646 25.0302C7.72932 27.7001 7.28879 34.8687 0 35.1491C0 35.1491 0.827665 22.4137 2.00242 16.4599C3.84464 7.11525 5.90045 0 16.8603 0H32.5993Z" fill="#E42127"/>
<path d="M37.098 12.2415H21.4658C16.5799 12.2415 13.296 13.5764 11.961 18.4623C10.7552 23.7223 10.0666 29.0876 9.90521 34.4816V37.2183C9.90521 37.2183 9.78507 41.7704 15.6855 41.7704H33.1466C33.1466 41.7704 33.5471 33.5472 29.035 33.5472H18.6891C17.7413 33.5472 17.3542 32.7061 17.3542 30.7037C17.2827 28.6176 17.4169 26.5294 17.7547 24.4695C18.2486 22.6941 18.6891 20.0242 22.5872 20.0242H29.3687C31.4245 20.0242 37.098 18.0218 37.098 12.2415Z" fill="#E42127"/>
</g>
<defs>
<clipPath id="clip0_529_368">
<rect width="210" height="42.6381" fill="white"/>
</clipPath>
</defs>
</svg>
