<svg width="160" height="90" viewBox="0 0 160 90" fill="none" xmlns="http://www.w3.org/2000/svg">
<path d="M154.365 12.5925C151.971 11.923 82.8634 0 80 0C77.1366 0 8.02854 11.923 5.6255 12.5925C3.22247 13.262 0 14.6194 0 19.2602V70.5105C0.174978 72.2442 0.922605 73.8709 2.12564 75.1357C3.32868 76.4005 4.9191 77.2318 6.64749 77.4992C11.4444 78.233 78.2322 90 80 90C81.7678 90 148.556 78.233 153.353 77.4992C155.08 77.2303 156.67 76.3986 157.873 75.1341C159.075 73.8696 159.824 72.2436 160 70.5105V19.2602C160 14.6194 156.768 13.2345 154.365 12.5925Z" fill="url(#paint0_linear_528_246)"/>
<path d="M42.0762 73.6563H41.1555V68.4469H43.4573C43.6871 68.4351 43.9168 68.4705 44.1322 68.551C44.3477 68.6315 44.5441 68.7553 44.7094 68.9147C45.0053 69.2291 45.1699 69.6439 45.1699 70.0749C45.1699 70.5058 45.0053 70.9206 44.7094 71.2351C44.5459 71.3975 44.35 71.5239 44.1342 71.6061C43.9185 71.6882 43.6879 71.7243 43.4573 71.712H42.0762V73.6563ZM43.3284 70.9049C43.5636 70.9163 43.7942 70.8375 43.9729 70.6848C44.1326 70.5235 44.2221 70.306 44.2221 70.0795C44.2221 69.8529 44.1326 69.6355 43.9729 69.4741C43.7942 69.3214 43.5636 69.2426 43.3284 69.254H42.0762V70.9049H43.3284Z" fill="white"/>
<path d="M51.3754 73.6564H50.4547V71.3818H47.7386V73.6564H46.8179V68.447H47.7386V70.6206H50.4547V68.447H51.3754V73.6564Z" fill="white"/>
<path d="M58.0873 73.6564H57.0837L56.697 72.6567H54.2572L53.8797 73.6564H52.8301L54.8832 68.447H56.0341L58.0873 73.6564ZM56.4024 71.8221L55.4817 69.3366L54.561 71.8221H56.4024Z" fill="white"/>
<path d="M64.523 73.6564H63.4642L61.3834 71.712H60.4627V73.6564H59.542V68.447H61.8438C62.0691 68.4363 62.2943 68.4705 62.5061 68.5477C62.718 68.6249 62.9122 68.7434 63.0775 68.8964C63.2306 69.0519 63.3498 69.2373 63.4274 69.4409C63.505 69.6445 63.5395 69.862 63.5286 70.0795C63.5493 70.4415 63.4347 70.7984 63.2069 71.0812C62.9791 71.364 62.6542 71.5528 62.2949 71.6112L64.523 73.6564ZM61.7609 70.9049C61.9961 70.9164 62.2267 70.8376 62.4054 70.6848C62.5651 70.5235 62.6546 70.3061 62.6546 70.0795C62.6546 69.853 62.5651 69.6355 62.4054 69.4742C62.2267 69.3214 61.9961 69.2427 61.7609 69.2541H60.4719V70.9049H61.7609Z" fill="white"/>
<path d="M70.8023 73.6564H69.8816V69.786L68.2795 73.6564H67.8836L66.2908 69.786V73.6564H65.3701V68.447H66.6591L68.1322 71.8771L69.5501 68.447H70.8023V73.6564Z" fill="white"/>
<path d="M77.5141 73.6564H76.4737L76.087 72.6567H73.6563L73.2788 73.6564H72.2568L74.31 68.447H75.4977L77.5141 73.6564ZM75.8292 71.8221L74.9085 69.3366L73.9878 71.8221H75.8292Z" fill="white"/>
<path d="M81.243 73.7481C80.9375 73.7703 80.6307 73.7305 80.3411 73.6312C80.0515 73.5319 79.7851 73.3751 79.5581 73.1703C79.3597 72.9617 79.206 72.7151 79.1062 72.4455C79.0065 72.1759 78.9629 71.8889 78.978 71.602V68.447H79.8987V71.5378C79.8773 71.9025 79.9995 72.2611 80.2394 72.5374C80.3715 72.6626 80.5278 72.7596 80.6987 72.8227C80.8697 72.8857 81.0517 72.9135 81.2338 72.9043C81.4146 72.915 81.5956 72.8879 81.7653 72.8247C81.935 72.7615 82.0895 72.6637 82.2189 72.5374C82.4646 72.2634 82.5934 71.9048 82.578 71.5378V68.447H83.4987V71.5928C83.5163 71.8806 83.4748 72.1689 83.3766 72.4402C83.2784 72.7114 83.1257 72.9599 82.9278 73.1703C82.7002 73.3742 82.4338 73.5304 82.1443 73.6297C81.8549 73.7289 81.5483 73.7692 81.243 73.7481Z" fill="white"/>
<path d="M87.6694 73.6564H86.7487V69.2541H85.1743V68.447H89.253V69.2541H87.6694V73.6564Z" fill="white"/>
<path d="M95.2836 72.9869C94.7686 73.4828 94.0803 73.76 93.364 73.76C92.6477 73.76 91.9594 73.4828 91.4443 72.9869C90.9584 72.4604 90.6887 71.7714 90.6887 71.0563C90.6887 70.3411 90.9584 69.6521 91.4443 69.1257C91.9594 68.6297 92.6477 68.3525 93.364 68.3525C94.0803 68.3525 94.7686 68.6297 95.2836 69.1257C95.7696 69.6521 96.0392 70.3411 96.0392 71.0563C96.0392 71.7714 95.7696 72.4604 95.2836 72.9869ZM93.3686 72.9869C93.6044 72.9941 93.8389 72.9493 94.0554 72.8558C94.2719 72.7622 94.4649 72.6222 94.6207 72.4457C94.9302 72.064 95.0989 71.5882 95.0989 71.0975C95.0989 70.6069 94.9302 70.1311 94.6207 69.7493C94.4603 69.5728 94.2653 69.4309 94.0477 69.3324C93.8301 69.2339 93.5945 69.1809 93.3555 69.1766C93.1165 69.1723 92.8792 69.2168 92.6582 69.3075C92.4372 69.3981 92.2371 69.5329 92.0704 69.7035C91.7485 70.0902 91.5723 70.5768 91.5723 71.0792C91.5723 71.5816 91.7485 72.0682 92.0704 72.4549C92.2372 72.6266 92.4401 72.7592 92.6646 72.8433C92.8891 72.9274 93.1296 72.9607 93.3686 72.941V72.9869Z" fill="white"/>
<path d="M103.248 73.6564H102.327V69.786L100.716 73.6564H100.357L98.7547 69.786V73.6564H97.834V68.447H99.1322L100.55 71.8771L101.977 68.447H103.266L103.248 73.6564Z" fill="white"/>
<path d="M109.96 73.6564H108.919L108.533 72.6567H106.139L105.752 73.6564H104.712L106.802 68.447H107.943L109.96 73.6564ZM108.275 71.8221L107.354 69.3366L106.433 71.8221H108.275Z" fill="white"/>
<path d="M113.587 73.6564H112.667V69.2541H111.083V68.447H115.162V69.2541H113.578L113.587 73.6564Z" fill="white"/>
<path d="M117.758 73.6564H116.837V68.447H117.758V73.6564Z" fill="white"/>
<path d="M122.279 73.7481C121.918 73.7593 121.559 73.6985 121.222 73.5694C120.885 73.4402 120.578 73.2453 120.318 72.996C119.816 72.4738 119.536 71.7789 119.536 71.0562C119.536 70.3336 119.816 69.6387 120.318 69.1165C120.578 68.8672 120.885 68.6723 121.222 68.5431C121.559 68.414 121.918 68.3532 122.279 68.3644C122.702 68.3502 123.121 68.4511 123.491 68.6564C123.861 68.8616 124.167 69.1633 124.378 69.5292L123.595 69.9327C123.465 69.7023 123.274 69.5119 123.043 69.3825C122.811 69.246 122.548 69.1732 122.279 69.1715C122.038 69.1645 121.799 69.2083 121.577 69.3C121.355 69.3917 121.155 69.5292 120.99 69.7035C120.644 70.079 120.453 70.5698 120.453 71.0792C120.453 71.5885 120.644 72.0794 120.99 72.4549C121.156 72.6274 121.357 72.7637 121.578 72.8552C121.8 72.9467 122.039 72.9916 122.279 72.9869C122.548 72.9874 122.812 72.9145 123.043 72.7759C123.27 72.6413 123.46 72.4521 123.595 72.2256L124.378 72.62C124.162 72.9784 123.853 73.2722 123.484 73.4707C123.114 73.6692 122.698 73.765 122.279 73.7481Z" fill="white"/>
<path d="M38.9273 70.5748H20.8354V71.5378H38.9273V70.5748Z" fill="white"/>
<path d="M144.937 70.5748H126.845V71.5378H144.937V70.5748Z" fill="white"/>
<path d="M53.0969 24.387L46.9558 29.8991C46.9558 29.8991 40.603 23.8459 34.9867 24.1119C30.0885 24.3503 28.2011 26.634 28.2011 28.2482C28.2011 29.8624 28.8456 31.5133 32.0312 33.21C35.2169 34.9067 43.4295 38.5845 46.1088 40.428C48.788 42.2715 51.9 44.4268 51.9 51.3604C51.9 58.2941 42.9416 63.7328 34.9867 62.7698C27.0318 61.8068 17.8616 57.1568 17.8616 57.1568L21.4615 49.6178C21.4615 49.6178 29.9596 55.8728 35.4931 55.8728C41.0265 55.8728 44.1201 52.7912 44.1201 50.5442C44.1201 48.2971 40.9436 46.4078 39.5165 45.7108C38.0894 45.0137 29.7939 41.4369 26.7003 39.6943C23.6068 37.9517 19.0401 35.2369 19.0401 28.6885C19.0401 22.14 27.0226 17.3525 35.9074 17.3525C44.7922 17.3525 53.0969 24.387 53.0969 24.387Z" fill="white"/>
<path d="M128.457 18.4989H116.414L101.968 45.5732L102.889 18.4989H89.833L77.5969 50.4433H76.9063L67.7729 18.4989H54.6161L51.0161 62.3112H53.0969C57.7004 62.3112 59.4221 57.7254 59.4221 55.6435C59.4221 53.5616 61.908 27.6979 61.908 27.6979L71.8148 62.3112H80.8101L94.1972 27.2302L93.4146 62.3112H98.6718C101.719 62.3112 104.813 59.6881 106.516 56.6982C108.219 53.7083 111.598 46.3619 111.598 46.3619L128.852 46.7288L134.119 62.0819H144.55L128.457 18.4989ZM114.793 39.8777L121.993 24.9832L127.352 39.8777H114.793Z" fill="white"/>
<defs>
<linearGradient id="paint0_linear_528_246" x1="0" y1="45.0046" x2="160" y2="45.0046" gradientUnits="userSpaceOnUse">
<stop stop-color="#EA3925"/>
<stop offset="1" stop-color="#B92A27"/>
</linearGradient>
</defs>
</svg>
