<svg width="210" height="102" viewBox="0 0 210 102" fill="none" xmlns="http://www.w3.org/2000/svg">
<g clip-path="url(#clip0_529_384)">
<path d="M35.3999 30.8362L40.1 29.0432C40.1 29.0432 41.2502 30.4662 37.5299 56.9196L43.2098 51.2277L48.6625 56.9196L48.0661 0C48.0661 0 45.2261 8.77985 42.0312 16.2506C38.8362 23.7213 35.3999 30.8362 35.3999 30.8362Z" fill="#2092CB"/>
<path d="M30.7851 18.1431V40.7971C30.7851 40.7971 23.6853 42.0921 21.2003 43.6431L22.7197 50.63L30.7567 48.1398L32.0631 64.3903C32.0631 64.3903 24.4947 64.7461 20.2347 66.9944C17.1143 68.7603 14.1458 70.7832 11.3599 73.0421L8.87495 69.4846C8.87495 69.4846 16.202 64.988 19.2834 63.565C22.4367 62.3631 25.6795 61.4115 28.9818 60.719L28.6268 53.476L20.5897 54.7851L16.4718 42.5759C19.6928 40.3794 23.3762 38.9574 27.2352 38.4207C27.2352 38.4207 27.5902 28.1041 27.5902 26.3253V24.5466C25.9307 24.8875 24.3351 25.4877 22.8617 26.3253L21.0867 27.5064L13.9869 34.0379L8.19336 33.6822C8.19336 33.6822 16.8268 21.1029 30.7851 18.1431Z" fill="#2092CB"/>
<path d="M54.6975 18.1431V40.7971C54.6975 40.7971 61.7974 42.0921 64.2823 43.6431L62.7345 50.63L54.6975 48.1398L53.3911 64.3903C53.3911 64.3903 60.9596 64.7461 65.2195 66.9944C68.34 68.7603 71.3085 70.7832 74.0943 73.0421L76.5793 69.4846C76.5793 69.4846 69.2522 64.988 66.1709 63.565C63.0175 62.3631 59.7747 61.4115 56.4725 60.719L56.7991 53.476L64.8361 54.7851L68.9824 42.5759C65.7614 40.3794 62.0781 38.9574 58.219 38.4207C58.219 38.4207 57.864 28.1041 57.864 26.3253V24.5466C59.5333 24.8846 61.1387 25.4849 62.6209 26.3253L64.3959 27.5064L71.4958 34.0379L77.2893 33.6822C77.2893 33.6822 68.6558 21.1029 54.6975 18.1431Z" fill="#2092CB"/>
<path d="M42.8549 102C35.5366 101.998 28.3407 100.119 21.9525 96.5407C15.5642 92.9628 10.1963 87.8057 6.35998 81.5603C2.52363 75.315 0.34658 68.1894 0.03615 60.8622C-0.27428 53.535 1.29225 46.2502 4.58655 39.7015C4.78534 39.303 4.99834 38.9188 5.21134 38.5346L7.63949 39.8438C7.4407 40.1995 7.2561 40.5695 7.0715 40.9395C4.24649 46.5607 2.79608 52.7746 2.83998 59.0684C2.82231 65.1955 4.20349 71.2454 6.87783 76.7554C9.55216 82.2653 13.4488 87.0891 18.2696 90.8578C23.0903 94.6265 28.7075 97.2402 34.6912 98.4988C40.675 99.7574 46.8667 99.6277 52.7928 98.1195C58.7188 96.6113 64.222 93.7647 68.8814 89.7973C73.5407 85.83 77.2327 80.8472 79.6749 75.23C82.1171 69.6129 83.2447 63.5104 82.9715 57.3894C82.6983 51.2684 81.0315 45.2911 78.0986 39.9149L80.5268 38.5915C84.0686 45.1321 85.8531 52.4829 85.7053 59.923C85.5575 67.3631 83.4824 74.6369 79.6836 81.031C75.8847 87.4251 70.4927 92.7199 64.0362 96.3959C57.5797 100.072 50.2806 102.003 42.8549 102Z" fill="#2092CB"/>
<path d="M74.577 77.3396C74.4351 77.2257 60.1075 66.5391 42.656 66.5391C25.2045 66.5391 10.8912 77.2257 10.735 77.3396L9.81201 78.0368L10.593 78.9049C11.1752 79.5452 25.1193 94.5578 42.656 94.5578C60.1927 94.5578 74.1369 79.4883 74.719 78.9049L75.5 78.0368L74.577 77.3396ZM51.1191 84.0988C48.6515 84.9288 46.08 85.4078 43.4796 85.5218V78.976C44.8843 78.8954 46.2661 78.5829 47.5691 78.0511L51.1191 84.0988ZM41.4916 85.5218C39.2199 85.3956 36.9753 84.9649 34.8178 84.2411L38.3393 78.2645C39.3668 78.6222 40.4357 78.8469 41.52 78.9333L41.4916 85.5218ZM32.9718 83.5296C31.0326 82.7386 29.2006 81.7059 27.5191 80.4559L33.3836 75.0486C34.2762 76.0427 35.333 76.8754 36.5075 77.5103L32.9718 83.5296ZM57.9349 80.7547C56.4083 81.8135 54.7702 82.7011 53.0502 83.4015L49.4151 77.1688C50.3602 76.5833 51.2163 75.8644 51.9569 75.0343L57.9349 80.7547ZM32.2334 73.3837L26.0139 79.0756C24.2004 77.554 22.9747 75.4449 22.5492 73.1133C25.3632 71.909 28.2693 70.9335 31.2394 70.1962C31.3603 71.3134 31.698 72.3962 32.2334 73.3837ZM24.5513 80.4986L20.2914 84.3976C17.699 82.5827 15.2537 80.5652 12.9786 78.3641C15.4157 76.7611 17.9639 75.3345 20.6038 74.0951C21.2551 76.5674 22.63 78.7877 24.5513 80.4701V80.4986ZM26.0707 81.822C27.8784 83.2239 29.8591 84.3861 31.9636 85.2799L29.4503 89.5488C26.8699 88.4216 24.3861 87.0842 22.0238 85.5502L26.0707 81.822ZM33.8522 86.091C36.3315 86.9636 38.9238 87.4716 41.5484 87.5993V92.4944C38.0482 92.3272 34.597 91.6018 31.3246 90.3457L33.8522 86.091ZM43.5364 87.6136C46.4912 87.5016 49.4118 86.9402 52.1982 85.9487L54.6548 90.118C51.1127 91.5452 47.3514 92.3491 43.5364 92.4944V87.6136ZM54.0868 85.2087C55.9625 84.4138 57.7438 83.4115 59.3975 82.2204L63.0895 85.7352C60.9869 87.1 58.7844 88.3034 56.5008 89.3354L54.0868 85.2087ZM60.9595 80.9397C63.0311 79.2611 64.5217 76.9705 65.2194 74.394C67.6694 75.5831 70.0409 76.9282 72.3193 78.421C69.9954 80.6802 67.4876 82.7412 64.8218 84.5826L60.9595 80.9397ZM59.5395 79.6021L53.107 73.4833C53.6676 72.5 54.034 71.4178 54.1862 70.2958C57.3307 71.1068 60.3997 72.1875 63.3593 73.5259C62.8452 75.9142 61.4953 78.0392 59.5537 79.5167L59.5395 79.6021ZM42.6844 77.0123C37.6293 77.0123 33.4972 73.7963 33.128 69.7266C39.4209 68.313 45.948 68.313 52.2409 69.7266C51.8575 73.7963 47.7253 77.0123 42.6844 77.0123Z" fill="#2092CB"/>
<path d="M100.818 55.0697V59.1822C102.408 58.7097 103.839 57.8102 104.955 56.5811C106.071 55.352 106.831 53.8402 107.151 52.2095C108.472 46.3895 108.983 28.0187 108.983 28.0187L104.141 28.4598C104.141 28.4598 103.445 48.154 103.133 50.3739C102.72 52.0924 101.929 53.6967 100.818 55.0697Z" fill="#2092CB"/>
<path d="M134.287 55.0697V59.1822C132.698 58.7103 131.269 57.8107 130.155 56.5813C129.04 55.3519 128.284 53.8398 127.968 52.2095C126.633 46.3895 126.136 28.0187 126.136 28.0187L130.936 28.4598C130.936 28.4598 131.632 48.154 131.944 50.3739C132.365 52.0948 133.166 53.6994 134.287 55.0697Z" fill="#2092CB"/>
<path d="M119.817 27.1365V50.0039C119.817 53.7322 119.306 58.3 111.298 59.7514V56.8343C111.298 56.8343 114.28 56.2082 114.28 51.9534V27.1365H119.817Z" fill="#2092CB"/>
<path d="M180.024 25.2154C180.024 25.2154 178.604 32.6149 173.535 34.7067V41.5229H176.219V61.1886C176.219 61.1886 181.97 60.591 181.814 56.5497V40.0999L177.043 39.9434C177.043 39.9434 183.418 30.1532 183.418 25.2154H180.024Z" fill="#2092CB"/>
<path d="M185.108 41.1387V55.952C185.108 58.0438 187.11 61.1886 189.907 61.1886H207.984V56.7489L191.413 56.1512V50.5446L206.379 46.6456L206.18 42.0352L191.1 45.2369V41.1387H185.108Z" fill="#2092CB"/>
<path d="M183.418 38.1362C183.418 38.1362 184.668 35.0625 185.363 32.7288C186.059 30.3951 186.869 26.7949 190.007 26.0265C193.582 25.5253 197.209 25.5253 200.784 26.0265C202.843 26.4249 204.888 27.2218 205.683 29.6267L206.478 32.0315L208.878 38.8334H202.786C202.043 36.2151 201.142 33.6443 200.088 31.135C199.585 30.3059 198.862 29.6329 197.999 29.1908C197.137 28.7487 196.169 28.5548 195.204 28.6306C192.506 28.6306 190.802 29.8117 189.836 34.0522C189.325 35.6886 189.51 38.8334 187.408 38.8334C186.05 38.8112 184.704 38.5759 183.418 38.1362Z" fill="#2092CB"/>
<path d="M106.598 71.6049L109.58 79.1468L112.718 71.6049H117.645L111.965 82.875L117.858 94.7855H112.945L109.58 86.2475L106.086 94.7855H101.273L106.853 82.875L101.5 71.6049H106.598Z" fill="#2092CB"/>
<path d="M124.376 94.7855H119.988V71.6049H124.376V94.7855Z" fill="#2092CB"/>
<path d="M132.058 71.6049H137.965L143.091 94.7855H138.291L137.198 88.752H132.228L130.808 94.7855H126.136L132.058 71.6049ZM136.658 85.3795L134.897 74.5221L132.768 85.3795H136.658Z" fill="#2092CB"/>
<path d="M152.221 71.1495C156.68 71.1495 159.662 73.1702 159.662 79.0898V87.4997C159.662 93.4051 156.68 95.2977 152.221 95.2977C147.762 95.2977 144.695 93.3482 144.695 87.4997V79.1183C144.695 73.2698 147.833 71.1495 152.221 71.1495ZM149.182 78.5776V88.0404C149.182 90.4595 150.134 91.7687 152.221 91.7687C154.309 91.7687 155.175 90.488 155.175 88.0404V78.6629C155.175 76.1869 154.11 74.7212 152.221 74.7212C150.333 74.7212 149.182 76.13 149.182 78.606V78.5776Z" fill="#2092CB"/>
<path d="M167.088 91.2564H175.069V94.7855H162.701V71.6049H167.088V91.2564Z" fill="#2092CB"/>
<path d="M181.757 71.6049V87.9124C181.757 90.4453 182.623 91.6691 184.696 91.6691C186.769 91.6691 187.621 90.5165 187.621 87.9124V71.6049H192.009V88.5527C192.009 92.7363 189.836 95.1981 184.696 95.1981C179.556 95.1981 177.369 92.7933 177.369 88.5527V71.6049H181.757Z" fill="#2092CB"/>
<path d="M199.989 71.6049L206.408 88.4531C205.986 85.5942 205.806 82.7048 205.868 79.8156V71.6049H209.972V94.7855H205.229L198.797 77.9657C199.216 80.7913 199.397 83.6475 199.336 86.5036V94.7285H195.247V71.6049H199.989Z" fill="#2092CB"/>
</g>
<defs>
<clipPath id="clip0_529_384">
<rect width="210" height="102" fill="white"/>
</clipPath>
</defs>
</svg>
