<svg width="210" height="48" viewBox="0 0 210 48" fill="none" xmlns="http://www.w3.org/2000/svg">
<g clip-path="url(#clip0_528_266)">
<path d="M6.22521 0H0V48H6.22521V0Z" fill="#BA2127"/>
<path d="M53.1344 0H46.9092V48H53.1344V0Z" fill="#BA2127"/>
<path d="M44.4985 31.2599V0H41.6782H38.2733H14.867H10.3713H8.63574V16.7401V22.962H14.867H29.7581H35.9833V16.7401V14.3212V9.07409H29.7581H17.4101V14.3212H29.7581V16.7401H14.867V6.21587H38.2733V25.038H14.867H8.63574V31.2599V41.7781V48H14.867H38.2733H40.503H44.4985V39.1425V34.1181V33.8955H17.7114V39.1425H38.2733V41.7781H14.867V31.2599H38.2733H44.4985Z" fill="#BA2127"/>
<path d="M95.2103 4.68749V1.25763H61.5291V4.68749H76.6552V13.2621V16.686V28.9553H67.8145V8.21363H64.3795V28.9553H61.5291V32.3791H95.2103V28.9553H80.0842V16.686H95.2103V13.2621H80.0842V4.68749H95.2103Z" fill="black"/>
<path d="M107.046 14.1587H99.5671V17.5886H107.046V14.1587Z" fill="black"/>
<path d="M107.046 1.67279H99.5671V5.10265H107.046V1.67279Z" fill="black"/>
<path d="M107.046 28.9492H99.5671V32.3791H107.046V28.9492Z" fill="black"/>
<path d="M171.377 21.6562H138.287V25.0861H171.377V21.6562Z" fill="black"/>
<path d="M156.552 33.3238V18.1602H153.117V33.3238H156.552Z" fill="black"/>
<path d="M171.383 2.92444H144.789V5.63222H171.383V2.92444Z" fill="black"/>
<path d="M157.547 18.7258V1.31171L154.431 1.31171V18.7258H157.547Z" fill="black"/>
<path d="M171.377 7.43738H143.053V10.1452H171.377V7.43738Z" fill="black"/>
<path d="M204.323 9.24255H181.11V11.9503H204.323V9.24255Z" fill="black"/>
<path d="M171.377 12.2933H143.053V15.0011H171.377V12.2933Z" fill="black"/>
<path d="M171.383 16.8063H144.789V19.5141H171.383V16.8063Z" fill="black"/>
<path d="M145.801 1.31777H141.987C141.284 4.52488 139.887 7.53977 137.895 10.1512V14.7785L139.883 13.2922V17.2215C139.883 18.4791 140.721 19.5141 142.481 19.5141H145.422V16.8484C145.422 16.8484 143.662 17.0289 143.662 15.0131V7.43737C144.115 6.88711 144.493 6.28027 144.789 5.63218C145.307 4.51296 145.801 1.1192 145.801 1.1192" fill="black"/>
<path d="M171.377 29.208V32.2648C171.377 32.2648 166.128 32.012 166.128 27.6495V24.2437H169.648V27.5532C169.648 28.8048 171.377 29.208 171.377 29.208Z" fill="black"/>
<path d="M138.66 29.208V32.2648C138.66 32.2648 143.909 32.012 143.909 27.6495V24.2437H140.414V27.5532C140.414 28.8048 138.66 29.208 138.66 29.208Z" fill="black"/>
<path d="M129.669 7.09436H117.568C115.688 7.09436 114.151 8.02704 114.151 9.89842V17.6186C114.148 18.069 114.234 18.5155 114.404 18.9326C114.574 19.3496 114.825 19.729 115.143 20.0488C115.46 20.3687 115.838 20.6227 116.254 20.7963C116.67 20.97 117.117 21.0597 117.568 21.0605H129.669C130.575 21.0589 131.443 20.699 132.083 20.0595C132.724 19.42 133.084 18.5531 133.086 17.6487V10.5002C133.083 9.59682 132.721 8.73148 132.081 8.09328C131.441 7.45509 130.574 7.09595 129.669 7.09436ZM128.717 17.3719H118.671C118.431 17.3719 118.201 17.2768 118.032 17.1075C117.862 16.9383 117.767 16.7087 117.767 16.4693C117.767 16.2299 117.862 16.0004 118.032 15.8311C118.201 15.6618 118.431 15.5667 118.671 15.5667H128.717C128.956 15.5667 129.186 15.6618 129.356 15.8311C129.525 16.0004 129.621 16.2299 129.621 16.4693C129.621 16.7087 129.525 16.9383 129.356 17.1075C129.186 17.2768 128.956 17.3719 128.717 17.3719ZM128.717 11.9563H118.671C118.431 11.9563 118.201 11.8612 118.032 11.692C117.862 11.5227 117.767 11.2931 117.767 11.0537C117.767 10.8144 117.862 10.5848 118.032 10.4155C118.201 10.2462 118.431 10.1512 118.671 10.1512H128.717C128.956 10.1512 129.186 10.2462 129.356 10.4155C129.525 10.5848 129.621 10.8144 129.621 11.0537C129.621 11.2931 129.525 11.5227 129.356 11.692C129.186 11.8612 128.956 11.9563 128.717 11.9563Z" fill="black"/>
<path d="M133.435 32.2648V29.3043C133.435 29.3043 131.628 29.6052 131.682 25.2968V22.589H128.717V27.0779C128.717 28.2814 128.867 32.2648 133.435 32.2648Z" fill="black"/>
<path d="M113.711 32.2648V29.3043C113.711 29.3043 115.519 29.6052 115.471 25.2968V22.589H118.436V27.0779C118.436 28.2814 118.285 32.2648 113.711 32.2648Z" fill="black"/>
<path d="M120.479 29.1538V32.2648H123.04C124.649 32.2648 125.504 30.61 125.504 29.1538V20.3806H121.985V27.7999C121.985 29.6593 120.479 29.1538 120.479 29.1538Z" fill="black"/>
<path d="M107.974 29.4066V32.2648C108.34 32.3414 108.717 32.3414 109.083 32.2648C109.083 32.2648 112.644 31.6631 112.644 26.7469V6.54083C112.644 5.33737 113.349 4.26027 115.109 4.26027H133.086V1.31781H112.795C109.782 1.31781 109.432 3.93534 109.432 7.93684V27.4269C109.432 28.0286 109.33 28.7025 107.974 29.4066Z" fill="black"/>
<path d="M120.527 6.22793V5.34338H117.423V6.65516C117.423 6.98611 117.176 7.14857 116.495 7.20273L117.044 7.80446L121.545 7.10044C121.545 7.10044 120.527 7.10645 120.527 6.22793Z" fill="black"/>
<path d="M205.854 1.31781H179.085C178.18 1.32099 177.313 1.68166 176.674 2.32098C176.035 2.9603 175.675 3.82628 175.674 4.72962V28.8831C175.675 29.7864 176.035 30.6524 176.674 31.2917C177.313 31.931 178.18 32.2917 179.085 32.2949H205.854C206.759 32.2917 207.626 31.9312 208.266 31.2921C208.907 30.6529 209.268 29.787 209.271 28.8831V4.72962C209.268 3.82573 208.907 2.95976 208.266 2.32061C207.626 1.68146 206.759 1.32098 205.854 1.31781ZM205.956 25.9526C205.953 26.8161 205.608 27.6432 204.996 28.2531C204.384 28.8631 203.555 29.2064 202.69 29.208H182.249C181.383 29.208 180.553 28.8652 179.941 28.2549C179.329 27.6446 178.984 26.8166 178.982 25.9526V7.62996C178.984 6.76652 179.328 5.9388 179.939 5.32769C180.549 4.71658 181.378 4.37176 182.243 4.36858H202.684C203.549 4.37175 204.378 4.71638 204.99 5.32732C205.602 5.93826 205.947 6.76596 205.95 7.62996L205.956 25.9526Z" fill="black"/>
<path d="M187.823 13.4186H191.638C191.638 13.4186 189.896 26.8011 181.508 26.8011V23.6781C181.508 23.6781 187.088 20.1219 187.823 13.4186Z" fill="black"/>
<path d="M191.24 23.7322H194.934C195.675 23.7322 196.073 23.2809 196.073 21.9691V6.61902H199.261V23.7322C199.244 24.5214 198.93 25.2753 198.382 25.844C197.834 26.4127 197.091 26.7543 196.302 26.801H191.24V23.7322Z" fill="black"/>
<path d="M69.1763 38.1075C68.8428 38.4646 68.4411 38.9279 67.971 39.4975C67.5009 40.0672 67.0188 40.687 66.5247 41.3569C66.0305 42.0248 65.5364 42.7168 65.0542 43.4268C64.5721 44.1369 64.1503 44.8048 63.7827 45.4426H69.3269V47.0312H61.4927V45.8277C61.6915 45.4607 61.9266 45.0635 62.1857 44.6243C62.4448 44.185 62.7281 43.7457 63.0294 43.2944C63.3307 42.8432 63.632 42.3738 63.9575 41.9105C64.2829 41.4471 64.6023 40.9898 64.9217 40.5626C65.2411 40.1354 65.5243 39.7202 65.8497 39.3591C66.1751 38.9981 66.4524 38.613 66.7115 38.3061H61.7458V36.7055H69.1401L69.1763 38.1075Z" fill="black"/>
<path d="M77.4445 36.7055H79.3248V47.0312H77.4445V42.4641H72.9609V47.0312H71.1108V36.7055H72.9911V40.8274H77.4747L77.4445 36.7055Z" fill="black"/>
<path d="M81.7957 47.0312V36.7055H88.4246V38.2941H83.6759V40.8574H87.8943V42.4219H83.6759V45.4306H88.7862V47.0192L81.7957 47.0312Z" fill="black"/>
<path d="M97.4883 47.0312C97.1508 46.4656 96.7711 45.8277 96.3553 45.226C95.9395 44.6243 95.5056 43.9263 95.0596 43.2644C94.6137 42.6025 94.1557 41.9646 93.6977 41.3448C93.2397 40.7251 92.7937 40.1414 92.3779 39.672V47.0312H90.5278V36.7055H92.0646C92.4663 37.1067 92.8942 37.6001 93.3482 38.1858C93.8001 38.7514 94.2642 39.3471 94.7222 39.9609C95.1802 40.5746 95.6321 41.1643 96.066 41.8142C96.4999 42.4641 96.8796 43.0177 97.2171 43.5472V36.7055H99.0852V47.0312H97.4883Z" fill="black"/>
<path d="M106.383 38.1376C105.933 38.1116 105.483 38.1867 105.065 38.3575C104.648 38.5283 104.275 38.7904 103.972 39.1245C103.371 39.9086 103.072 40.8824 103.129 41.8684C103.122 42.3851 103.191 42.9 103.334 43.3968C103.452 43.8341 103.657 44.2433 103.936 44.6002C104.202 44.9291 104.54 45.1926 104.925 45.3704C105.357 45.5594 105.826 45.6518 106.299 45.6412C106.582 45.6434 106.866 45.6313 107.148 45.6051C107.34 45.5906 107.529 45.5584 107.715 45.5088V41.7781H109.595V46.7364C109.165 46.8758 108.726 46.9844 108.281 47.0613C107.58 47.1892 106.867 47.2497 106.154 47.2418C105.457 47.2497 104.764 47.1294 104.111 46.8868C103.515 46.6587 102.978 46.3011 102.538 45.8398C102.089 45.3567 101.746 44.7847 101.532 44.161C101.284 43.4225 101.163 42.6472 101.176 41.8684C101.163 41.0865 101.296 40.3092 101.568 39.5758C101.811 38.9463 102.18 38.3729 102.653 37.8909C103.104 37.4282 103.651 37.069 104.256 36.8379C104.883 36.6001 105.549 36.4798 106.22 36.4829C106.646 36.4778 107.072 36.51 107.492 36.5792C107.817 36.6345 108.139 36.7069 108.456 36.7958C108.684 36.8594 108.906 36.944 109.119 37.0485L109.487 37.2411L108.92 38.7755C108.57 38.5749 108.195 38.4212 107.805 38.3182C107.342 38.1933 106.863 38.1326 106.383 38.1376Z" fill="black"/>
<path d="M119.846 41.2907C120.292 40.5445 120.732 39.7924 121.153 39.0282C121.575 38.264 121.973 37.4938 122.335 36.7055H124.426C123.865 37.7525 123.287 38.7995 122.69 39.8345C122.094 40.8695 121.443 41.9165 120.756 42.9695V47.0131H118.882V43.0177C118.195 41.9546 117.548 40.9016 116.941 39.8586C116.338 38.8176 115.736 37.7706 115.199 36.7236H117.405C117.755 37.4938 118.134 38.264 118.55 39.0282C118.966 39.7924 119.388 40.5445 119.846 41.2907Z" fill="black"/>
<path d="M129.663 47.2538C129.047 47.2668 128.434 47.1648 127.855 46.953C127.375 46.7659 126.944 46.4716 126.595 46.0925C126.256 45.7212 126.003 45.2794 125.854 44.7988C125.692 44.2684 125.613 43.7164 125.619 43.1621V36.7055H127.511V42.9876C127.501 43.3944 127.553 43.8005 127.668 44.191C127.753 44.4902 127.906 44.766 128.114 44.9973C128.302 45.2055 128.538 45.3646 128.801 45.4607C129.084 45.5658 129.385 45.6168 129.687 45.6111C129.991 45.6162 130.293 45.5652 130.579 45.4607C130.845 45.3661 131.083 45.2069 131.272 44.9973C131.48 44.766 131.633 44.4902 131.718 44.191C131.833 43.8005 131.885 43.3944 131.875 42.9876V36.7055H133.785V43.144C133.792 43.6989 133.711 44.2514 133.544 44.7807C133.388 45.2592 133.133 45.6999 132.797 46.0744C132.438 46.4581 131.994 46.7528 131.501 46.9349C130.913 47.1525 130.29 47.2606 129.663 47.2538Z" fill="black"/>
<path d="M142.897 47.0313C142.758 46.6281 142.613 46.225 142.463 45.8278C142.312 45.4307 142.173 45.0215 142.029 44.6244H137.672C137.527 45.0395 137.389 45.4487 137.244 45.8278C137.099 46.2069 136.955 46.6281 136.816 47.0313H134.864C135.255 45.9301 135.617 44.9132 135.966 43.9805C136.316 43.0478 136.653 42.1753 136.985 41.3329C137.316 40.4905 137.648 39.7082 137.979 38.926C138.311 38.1437 138.642 37.4277 138.992 36.6935H140.799C141.149 37.4277 141.486 38.1678 141.812 38.926C142.137 39.6841 142.475 40.4724 142.806 41.3329C143.138 42.1934 143.481 43.0478 143.831 43.9805C144.18 44.9132 144.554 45.9301 144.946 47.0313H142.897ZM139.853 38.7154C139.624 39.2389 139.359 39.8827 139.07 40.6349C138.781 41.387 138.467 42.2054 138.154 43.0899H141.547C141.233 42.2054 140.944 41.387 140.625 40.6228C140.305 39.8586 140.07 39.2208 139.853 38.7154Z" fill="black"/>
<path d="M153.178 47.0312C152.84 46.4656 152.466 45.8277 152.045 45.226C151.623 44.6243 151.201 43.9263 150.749 43.2644C150.297 42.6025 149.851 41.9646 149.387 41.3448C148.923 40.7251 148.483 40.1414 148.067 39.672V47.0312H146.223V36.7055H147.754C148.156 37.1067 148.583 37.6001 149.037 38.1858C149.495 38.7514 149.953 39.3471 150.417 39.9609C150.882 40.5746 151.327 41.1643 151.755 41.8142C152.183 42.4641 152.575 43.0177 152.912 43.5472V36.7055H154.775V47.0312H153.178Z" fill="black"/>
<path d="M165.55 38.1377C165.099 38.1116 164.649 38.1867 164.232 38.3575C163.815 38.5283 163.441 38.7904 163.139 39.1245C162.54 39.9095 162.243 40.8831 162.301 41.8684C162.296 42.3846 162.363 42.8991 162.5 43.3968C162.616 43.835 162.821 44.2446 163.103 44.6002C163.367 44.9289 163.703 45.1924 164.085 45.3705C164.52 45.5593 164.991 45.6517 165.465 45.6412C165.791 45.6412 166.074 45.6292 166.315 45.6051C166.506 45.5901 166.696 45.5579 166.881 45.5089V41.7781H168.738V46.7364C168.31 46.8768 167.873 46.9854 167.43 47.0613C166.726 47.1895 166.012 47.2499 165.296 47.2418C164.6 47.2487 163.907 47.1283 163.254 46.8868C162.659 46.6603 162.123 46.3024 161.687 45.8398C161.235 45.3582 160.892 44.7858 160.68 44.161C160.427 43.4236 160.305 42.6478 160.319 41.8684C160.305 41.0859 160.44 40.308 160.716 39.5758C160.957 38.9466 161.324 38.3733 161.795 37.8909C162.251 37.4302 162.799 37.0712 163.404 36.8379C164.034 36.5996 164.702 36.4792 165.375 36.4829C165.801 36.478 166.226 36.5103 166.646 36.5792C166.97 36.6338 167.289 36.7062 167.605 36.7958C167.835 36.8585 168.059 36.9431 168.273 37.0485L168.635 37.2411L168.069 38.7755C167.721 38.5749 167.348 38.4211 166.96 38.3182C166.5 38.1948 166.026 38.1341 165.55 38.1377Z" fill="black"/>
<path d="M173.746 36.6153C174.945 36.5407 176.139 36.8257 177.175 37.4336C177.573 37.7134 177.893 38.0903 178.104 38.5285C178.315 38.9667 178.41 39.4516 178.38 39.9368C178.409 40.575 178.22 41.2041 177.843 41.7204C177.466 42.2367 176.924 42.6094 176.307 42.777C176.494 43.0057 176.711 43.2825 176.946 43.6134C177.181 43.9444 177.428 44.2934 177.681 44.6725C177.934 45.0515 178.163 45.4487 178.392 45.8759C178.621 46.3031 178.826 46.6702 178.994 47.0794H176.873C176.686 46.7244 176.482 46.3633 176.271 46.0023C176.06 45.6412 175.831 45.2862 175.608 44.9432C175.385 44.6003 175.162 44.2813 174.945 43.9805C174.728 43.6796 174.523 43.3787 174.342 43.1681C174.204 43.1681 174.083 43.1681 173.987 43.1681H172.781V47.0673H170.901V36.868C171.384 36.7683 171.873 36.702 172.366 36.6694C172.878 36.6333 173.336 36.6153 173.746 36.6153ZM173.878 38.24C173.48 38.24 173.113 38.24 172.775 38.2821V41.6157H173.595C173.998 41.6192 174.401 41.595 174.8 41.5435C175.106 41.5089 175.402 41.417 175.674 41.2727C175.897 41.1555 176.082 40.9756 176.204 40.7552C176.332 40.4954 176.392 40.2078 176.379 39.9188C176.39 39.6415 176.33 39.3662 176.204 39.1185C176.086 38.8998 175.908 38.7185 175.692 38.595C175.442 38.459 175.171 38.3654 174.891 38.3182C174.556 38.2629 174.217 38.2367 173.878 38.24Z" fill="black"/>
<path d="M189.896 41.8684C189.91 42.664 189.777 43.4555 189.504 44.2031C189.269 44.8355 188.904 45.4116 188.432 45.894C187.978 46.3572 187.426 46.7129 186.817 46.935C186.198 47.1659 185.543 47.2822 184.882 47.2779C184.226 47.2787 183.575 47.1626 182.96 46.935C182.368 46.7066 181.833 46.3512 181.393 45.894C180.919 45.4106 180.55 44.8351 180.308 44.2031C179.778 42.6937 179.778 41.0491 180.308 39.5397C180.552 38.9079 180.926 38.3341 181.405 37.8548C181.86 37.402 182.407 37.0512 183.008 36.8259C184.249 36.3685 185.612 36.3685 186.853 36.8259C187.45 37.0501 187.99 37.4012 188.438 37.8548C188.909 38.3367 189.276 38.9102 189.516 39.5397C189.791 40.2845 189.92 41.075 189.896 41.8684ZM181.839 41.8684C181.832 42.3891 181.901 42.908 182.044 43.4088C182.164 43.8455 182.369 44.2544 182.646 44.6123C182.907 44.9306 183.237 45.1857 183.611 45.3584C184.012 45.5368 184.446 45.6289 184.885 45.6289C185.324 45.6289 185.759 45.5368 186.16 45.3584C186.531 45.184 186.858 44.9291 187.118 44.6123C187.398 44.2558 187.603 43.8465 187.721 43.4088C188.002 42.401 188.002 41.3357 187.721 40.328C187.604 39.89 187.399 39.4805 187.118 39.1245C186.858 38.8059 186.531 38.549 186.16 38.3723C185.758 38.1976 185.324 38.1074 184.885 38.1074C184.447 38.1074 184.013 38.1976 183.611 38.3723C183.236 38.5494 182.907 38.8086 182.646 39.1305C182.371 39.49 182.167 39.8983 182.044 40.334C181.9 40.8324 181.83 41.3496 181.839 41.8684Z" fill="black"/>
<path d="M195.935 47.2538C195.318 47.266 194.705 47.164 194.127 46.953C193.652 46.7692 193.225 46.4796 192.88 46.1063C192.534 45.733 192.278 45.2858 192.132 44.7988C191.965 44.2695 191.884 43.717 191.891 43.1621V36.7055H193.783V42.9876C193.775 43.3943 193.828 43.7999 193.94 44.191C194.025 44.4902 194.177 44.766 194.386 44.9973C194.575 45.2042 194.81 45.3631 195.073 45.4607C195.356 45.5658 195.656 45.6169 195.959 45.6111C196.265 45.6161 196.569 45.5651 196.857 45.4607C197.121 45.3623 197.358 45.2036 197.55 44.9973C197.756 44.7645 197.908 44.4892 197.996 44.191C198.107 43.7999 198.16 43.3943 198.152 42.9876V36.7055H200.044V43.144C200.05 43.6992 199.966 44.2518 199.797 44.7807C199.647 45.2617 199.392 45.7035 199.05 46.0744C198.696 46.4579 198.256 46.7527 197.767 46.9349C197.181 47.1525 196.56 47.2606 195.935 47.2538Z" fill="black"/>
<path d="M205.348 36.6153C206.554 36.5428 207.756 36.8274 208.801 37.4336C209.205 37.7216 209.529 38.1087 209.74 38.5577C209.951 39.0067 210.043 39.5023 210.006 39.997C210.019 40.532 209.91 41.0629 209.687 41.5495C209.474 41.9782 209.152 42.3435 208.753 42.6085C208.298 42.8984 207.793 43.1024 207.264 43.2102C206.602 43.3451 205.927 43.4096 205.251 43.4028H204.293V47.0132H202.419V36.868C202.897 36.7658 203.383 36.6994 203.871 36.6694C204.41 36.6333 204.902 36.6153 205.348 36.6153ZM205.486 38.2399C205.01 38.2399 204.613 38.2399 204.281 38.2821V41.7962H205.191C205.906 41.8336 206.62 41.7038 207.276 41.4171C207.526 41.2747 207.728 41.0629 207.859 40.8074C207.989 40.552 208.042 40.2641 208.011 39.9789C208.021 39.6836 207.953 39.3908 207.813 39.1305C207.687 38.9059 207.501 38.7205 207.276 38.595C207.025 38.458 206.751 38.3644 206.469 38.3182C206.148 38.2656 205.823 38.2394 205.498 38.2399H205.486Z" fill="black"/>
</g>
<defs>
<clipPath id="clip0_528_266">
<rect width="210" height="48" fill="white"/>
</clipPath>
</defs>
</svg>
